<?xml version="1.0" encoding="utf-8"?>
<!-- Generator: Adobe Illustrator 24.1.0, SVG Export Plug-In . SVG Version: 6.00 Build 0)  -->
<svg version="1.1" id="Layer_1" xmlns="http://www.w3.org/2000/svg" xmlns:xlink="http://www.w3.org/1999/xlink" x="0px" y="0px"
	 viewBox="0 0 512 512" style="enable-background:new 0 0 512 512;" xml:space="preserve">
<style type="text/css">
	.st0{fill:#ED1C24;}
</style>
<g>
	<g>
		<path class="st0" d="M256,0C114.8,0,0,114.8,0,256s114.8,256,256,256s256-114.8,256-256S397.2,0,256,0z M377.7,228.4L271.1,335.1
			c-4.2,4.2-9.6,6.3-15.1,6.3s-10.9-2.1-15.1-6.3L134.3,228.4c-8.3-8.3-8.3-21.8,0-30.2s21.8-8.3,30.2,0l91.6,91.6l91.6-91.6
			c8.3-8.3,21.8-8.3,30.2,0C386.1,206.6,386.1,220.1,377.7,228.4z"/>
	</g>
</g>
</svg>
